<?xml version="1.0" encoding="iso-8859-1"?>
<!-- Generator: Adobe Illustrator 16.0.0, SVG Export Plug-In . SVG Version: 6.00 Build 0)  -->
<!DOCTYPE svg PUBLIC "-//W3C//DTD SVG 1.1//EN" "http://www.w3.org/Graphics/SVG/1.1/DTD/svg11.dtd">
<svg xmlns="http://www.w3.org/2000/svg" xmlns:xlink="http://www.w3.org/1999/xlink" version="1.1" id="Capa_1" x="0px" y="0px" width="512px" height="512px" viewBox="0 0 568.587 568.587" style="enable-background:new 0 0 568.587 568.587;" xml:space="preserve">
<g>
	<g>
		<path d="M369.378,233.765l1.18-2.247c0-0.004,0.034-0.091,0.034-0.091l77.88-148.26c0.104-0.16,5.378-10.214,10.773,0.026    l77.637,147.8c1.596,3.179,6.506,14.469-5.014,14.469l-155.048-0.026c-0.018,0-0.018,0-0.018,0    C365.509,245.427,367.539,237.733,369.378,233.765L369.378,233.765z M197.229,231.926l0.008,0.009l1.206,2.32    c1.865,3.852,4.68,11.19-1.206,11.19l-167.066-0.018c-5.543,0-4.441-5.07-2.676-9.168l2.65-5.027l0.026-0.043l79.641-151.643    c0,0,4.068-6.289,7.377,0h0.009L197.229,231.926L197.229,231.926z M566.462,237.204l-0.243-0.555l0.139-0.104l-1.752-3.357    L470.262,53.57c-2.567-4.688-11.537-18.459-28.782-18.459H125.464c-19.24,0-28.869,18.958-29.081,19.401L3.735,230.915    l-0.035,0.078l-0.659,1.245c-1.553,3.071-5,11.42-1.579,19.665c23.538,38.207,65.501,63.848,113.67,63.848    c47.094,0,88.18-24.565,111.987-61.363c3.643-8.358-1.431-18.828-1.431-18.828L138.038,68.637l-0.854-1.618    c-1.184-2.719-2.233-7.898,7.165-7.898h114.928c3.253,0.108,12.344,1.722,12.344,16.941v395.443    c-0.217,3.903-1.7,11.85-9.846,16.863l-57.529,35.583c0,0-15.094,9.524,0,9.524h163.258c11.121,0,0-7.721,0-7.721l-59.269-36.276    c-0.034-0.018-0.034-0.035-0.052-0.052c-9.75-5.969-11.572-13.48-11.832-17.28V74.375c0-13.753,9.854-15.171,13.324-15.254    h112.373c2.933,0.056,11.901,1.032,6.263,11.823l-87.993,167.508c0,0-2.759,6.593,0.347,13.823    c23.56,37.999,65.354,63.475,113.375,63.475c48.109,0,90.059-25.528,113.602-63.653    C569.983,245.952,567.347,239.13,566.462,237.204L566.462,237.204z" fill="#FFFFFF"/>
	</g>
</g>
<g>
</g>
<g>
</g>
<g>
</g>
<g>
</g>
<g>
</g>
<g>
</g>
<g>
</g>
<g>
</g>
<g>
</g>
<g>
</g>
<g>
</g>
<g>
</g>
<g>
</g>
<g>
</g>
<g>
</g>
</svg>
