<?xml version="1.0" encoding="iso-8859-1"?>
<!-- Generator: Adobe Illustrator 19.0.0, SVG Export Plug-In . SVG Version: 6.00 Build 0)  -->
<svg version="1.1" id="Layer_1" xmlns="http://www.w3.org/2000/svg" xmlns:xlink="http://www.w3.org/1999/xlink" x="0px" y="0px"
	 viewBox="0 0 512 512" style="enable-background:new 0 0 512 512;" xml:space="preserve">
<path style="fill:#707487;" d="M438.711,359.057l-32.639-8.16l-6.559-1.64l-287.289,0.066l-38.935,9.734
	c-27.508,6.877-46.806,31.593-46.806,59.948v75.34c0,9.75,7.905,17.655,17.655,17.655h423.724c9.75,0,17.655-7.905,17.655-17.655
	v-75.34C485.517,390.649,466.219,365.933,438.711,359.057z"/>
<rect x="185.379" y="282.483" style="fill:#E6B47D;" width="141.241" height="105.931"/>
<path style="fill:#D2A073;" d="M185.379,282.483v72.063c83.538,10.93,141.241-63.235,141.241-63.235v-8.828H185.379z"/>
<rect x="194.207" y="379.586" style="fill:#D7DEED;" width="123.586" height="132.414"/>
<g>
	<path style="fill:#464655;" d="M185.379,512l-44.138-105.931l17.655-17.655l-35.31-8.828l-13.103-26.207
		c-2.402-4.804,0.008-10.624,5.105-12.322l69.792-23.264L220.69,512"/>
	<path style="fill:#464655;" d="M326.621,512l44.138-105.931l-17.655-17.655l35.31-8.828l13.103-26.207
		c2.402-4.804-0.008-10.624-5.105-12.322l-69.792-23.264L291.31,512"/>
</g>
<polygon style="fill:#69A0C3;" points="243.738,397.241 238.344,512 273.654,512 268.259,397.241 "/>
<path style="fill:#F0C891;" d="M361.931,159.34V97.103H150.069v62.237c-10.073,2.045-17.655,10.95-17.655,21.625v17.655
	c0,10.676,7.582,19.581,17.655,21.625v16.235c0,17.709,8.17,34.247,21.771,44.07l39.249,28.346
	c8.031,5.801,17.468,8.896,27.119,8.896h35.582c9.652,0,19.089-3.095,27.121-8.896l39.249-28.346
	c13.601-9.823,21.771-26.36,21.771-44.07v-16.235c10.073-2.045,17.655-10.95,17.655-21.625v-17.655
	C379.586,170.289,372.004,161.385,361.931,159.34z"/>
<path style="fill:#578CB1;" d="M238.345,379.586v17.655c0,4.875,3.953,8.828,8.828,8.828h17.655c4.875,0,8.828-3.953,8.828-8.828
	v-17.655H238.345z"/>
<path style="fill:#694B41;" d="M247.172,0c-61.793,0-70.621,26.483-70.621,26.483c-35.31,0-52.966,8.828-52.966,44.138
	c0,23.724,8.828,97.103,8.828,97.103l17.655,8.828l16.455-61.841c0,0,80.649,26.53,186.58,26.53l8.828,35.31l17.655-8.828
	c0,0,8.828-52.966,8.828-88.276C388.414,26.483,317.793,0,247.172,0z"/>
<path style="fill:#553732;" d="M176.552,26.483c-35.31,0-52.966,8.828-52.966,44.138c0,23.724,8.828,97.103,8.828,97.103
	l17.655,8.828l16.455-61.841c0,0,80.649,26.53,186.58,26.53C229.517,114.759,176.552,52.966,176.552,26.483z"/>
<g>
	<path style="fill:#464655;" d="M194.21,194.211c-0.922,0-1.866-0.147-2.793-0.457l-52.966-17.655
		c-4.625-1.543-7.125-6.543-5.582-11.168c1.543-4.621,6.535-7.147,11.168-5.582l52.966,17.655c4.625,1.543,7.125,6.543,5.582,11.168
		C201.353,191.871,197.909,194.211,194.21,194.211z"/>
	<path style="fill:#464655;" d="M317.796,194.211c-3.699,0-7.143-2.34-8.375-6.039c-1.543-4.625,0.957-9.625,5.582-11.168
		l52.966-17.655c4.633-1.565,9.625,0.961,11.168,5.582c1.543,4.625-0.957,9.625-5.582,11.168l-52.966,17.655
		C319.663,194.065,318.719,194.211,317.796,194.211z"/>
</g>
<path style="fill:#D2A073;" d="M256.001,279.072c-10.767,0-21.185-2.146-30.13-6.198c-4.439-2.017-6.406-7.25-4.392-11.69
	c2.014-4.44,7.245-6.414,11.686-4.396c13.345,6.051,32.328,6.051,45.673,0c4.452-2.008,9.677-0.043,11.685,4.396
	c2.013,4.439,0.047,9.673-4.392,11.69C277.183,276.926,266.764,279.072,256.001,279.072z"/>
<path style="fill:#FFFFFF;" d="M229.517,211.862h-35.31c-4.875,0-8.828-3.953-8.828-8.828v-17.655c0-4.875,3.953-8.828,8.828-8.828
	h35.31c4.875,0,8.828,3.953,8.828,8.828v17.655C238.345,207.91,234.392,211.862,229.517,211.862z"/>
<path style="fill:#5A4137;" d="M211.862,203.034L211.862,203.034c-4.855,0-8.828-3.972-8.828-8.828v-8.828
	c0-4.855,3.972-8.828,8.828-8.828l0,0c4.855,0,8.828,3.972,8.828,8.828v8.828C220.69,199.062,216.717,203.034,211.862,203.034z"/>
<path style="fill:#FFFFFF;" d="M282.483,211.862h35.31c4.875,0,8.828-3.953,8.828-8.828v-17.655c0-4.875-3.953-8.828-8.828-8.828
	h-35.31c-4.875,0-8.828,3.953-8.828,8.828v17.655C273.655,207.91,277.608,211.862,282.483,211.862z"/>
<path style="fill:#5A4137;" d="M300.138,203.034L300.138,203.034c-4.855,0-8.828-3.972-8.828-8.828v-8.828
	c0-4.855,3.972-8.828,8.828-8.828l0,0c4.855,0,8.828,3.972,8.828,8.828v8.828C308.966,199.062,304.993,203.034,300.138,203.034z"/>
<path style="fill:#464655;" d="M273.655,203.034c-4.875,0-8.828-3.953-8.828-8.828c0-4.866-3.961-8.828-8.828-8.828
	s-8.828,3.961-8.828,8.828c0,4.875-3.953,8.828-8.828,8.828c-4.875,0-8.828-3.953-8.828-8.828c0-14.603,11.88-26.483,26.483-26.483
	s26.483,11.88,26.483,26.483C282.483,199.082,278.53,203.034,273.655,203.034z"/>
<g>
	<path style="fill:#707487;" d="M238.345,203.034c-4.875,0-8.828-3.953-8.828-8.828v-8.828h-35.31v8.828
		c0,4.875-3.953,8.828-8.828,8.828c-4.875,0-8.828-3.953-8.828-8.828v-8.828c0-9.737,7.918-17.655,17.655-17.655h35.31
		c9.737,0,17.655,7.918,17.655,17.655v8.828C247.172,199.082,243.22,203.034,238.345,203.034z"/>
	<path style="fill:#707487;" d="M326.621,203.034c-4.875,0-8.828-3.953-8.828-8.828v-8.828h-35.31v8.828
		c0,4.875-3.953,8.828-8.828,8.828s-8.828-3.953-8.828-8.828v-8.828c0-9.737,7.918-17.655,17.655-17.655h35.31
		c9.737,0,17.655,7.918,17.655,17.655v8.828C335.448,199.082,331.496,203.034,326.621,203.034z"/>
</g>
<g>
	<path style="fill:#E4EAF6;" d="M185.379,308.966L256,379.586c0,0-35.31,8.828-61.793,44.138
		c-0.018,0.023-25.042-68.842-32.947-90.599c-1.389-3.825,0.019-8.093,3.404-10.35L185.379,308.966z"/>
	<path style="fill:#E4EAF6;" d="M326.621,308.966L256,379.586c0,0,35.31,8.828,61.793,44.138
		c0.018,0.023,25.042-68.842,32.947-90.599c1.389-3.825-0.019-8.093-3.404-10.35L326.621,308.966z"/>
</g>
<g>
	<path style="fill:#5B5D6E;" d="M42.426,377.875c-9.907,11.049-15.944,25.468-15.944,41.13v75.34
		c0,9.751,7.904,17.655,17.655,17.655h61.793v-48.682c0-14.047-5.58-27.519-15.513-37.452L42.426,377.875z"/>
	<path style="fill:#5B5D6E;" d="M469.574,377.875c9.907,11.049,15.944,25.468,15.944,41.13v75.34
		c0,9.751-7.904,17.655-17.655,17.655h-61.793v-48.682c0-14.047,5.58-27.519,15.513-37.452L469.574,377.875z"/>
</g>
<g>
</g>
<g>
</g>
<g>
</g>
<g>
</g>
<g>
</g>
<g>
</g>
<g>
</g>
<g>
</g>
<g>
</g>
<g>
</g>
<g>
</g>
<g>
</g>
<g>
</g>
<g>
</g>
<g>
</g>
</svg>
